HIERARCHY
ROOT Hips
{
	OFFSET 0.00000 0.00000 0.00000
	CHANNELS 6 Xposition Yposition Zposition Zrotation Yrotation Xrotation 
	JOINT LHipJoint
	{
		OFFSET 0 0 0
		CHANNELS 3 Zrotation Yrotation Xrotation
		JOINT LeftHip
		{
			OFFSET 1.77779 -1.88989 0.48267
			CHANNELS 3 Zrotation Yrotation Xrotation
			JOINT LeftKnee
			{
				OFFSET 2.53442 -6.96327 0.00000
				CHANNELS 3 Zrotation Yrotation Xrotation
				JOINT LeftAnkle
				{
					OFFSET 2.71068 -7.44755 0.00000
					CHANNELS 3 Zrotation Yrotation Xrotation
					JOINT LeftToe
					{
						OFFSET 0.17992 -0.49431 2.22524
						CHANNELS 3 Zrotation Yrotation Xrotation
						End Site
						{
							OFFSET 0.00000 -0.00000 1.14687
						}
					}
				}
			}
		}
	}
	JOINT RHipJoint
	{
		OFFSET 0 0 0
		CHANNELS 3 Zrotation Yrotation Xrotation
		JOINT RightHip
		{
			OFFSET -1.58469 -1.88989 0.48267
			CHANNELS 3 Zrotation Yrotation Xrotation
			JOINT RightKnee
			{
				OFFSET -2.60386 -7.15404 0.00000
				CHANNELS 3 Zrotation Yrotation Xrotation
				JOINT RightAnkle
				{
					OFFSET -2.73334 -7.50979 0.00000
					CHANNELS 3 Zrotation Yrotation Xrotation
					JOINT RightToe
					{
						OFFSET -0.25618 -0.70384 2.21822
						CHANNELS 3 Zrotation Yrotation Xrotation
						End Site
						{
							OFFSET -0.00000 -0.00000 1.16381
						}
					}
				}
			}
		}
	}
	JOINT lowerback
	{
		OFFSET 0 0 0
		CHANNELS 3 Zrotation Yrotation Xrotation
		JOINT Chest
		{
			OFFSET 0.03410 2.01612 -0.22230
			CHANNELS 3 Zrotation Yrotation Xrotation
			JOINT Chest2
			{
				OFFSET 0.03465 2.03012 0.00937
				CHANNELS 3 Zrotation Yrotation Xrotation
				JOINT lowerneck
				{
					OFFSET 0 0 0
					CHANNELS 3 Zrotation Yrotation Xrotation
					JOINT Neck
					{
						OFFSET -0.00219 1.70459 0.20857
						CHANNELS 3 Zrotation Yrotation Xrotation
						JOINT Head
						{
							OFFSET 0.02518 1.72339 -0.22179
							CHANNELS 3 Zrotation Yrotation Xrotation
							End Site
							{
								OFFSET 0.00282 1.74122 -0.09823
							}
						}
					}
				}
				JOINT LeftCollar
				{
					OFFSET 0 0 0
					CHANNELS 3 Zrotation Yrotation Xrotation
					JOINT LeftShoulder
					{
						OFFSET 3.36358 1.00547 -0.37661
CHANNELS 3 Zrotation Xrotation Yrotation
						JOINT LeftElbow
						{
OFFSET 0 -5.065070 0.000000
CHANNELS 3 Zrotation Xrotation Yrotation
							JOINT LeftWrist
							{
OFFSET 0 -3.601960 0.000000
CHANNELS 3 Zrotation Xrotation Yrotation
								JOINT lhand
								{
									OFFSET 0 0 0
CHANNELS 3 Zrotation Xrotation Yrotation
									JOINT LFingers
									{
OFFSET 0 -0.450350 0.000000
CHANNELS 3 Zrotation Xrotation Yrotation
										End Site
										{
OFFSET 0 -0.363080 0.000000
										}
									}
								}
								JOINT LThumb
								{
OFFSET 0 0.000000 0.000000
CHANNELS 3 Zrotation Xrotation Yrotation
									End Site
									{
OFFSET 0 -0.368620 0.368620
									}
								}
							}
						}
					}
				}
				JOINT RightCollar
				{
					OFFSET 0 0 0
					CHANNELS 3 Zrotation Yrotation Xrotation
					JOINT RightShoulder
					{
						OFFSET -3.50159 0.80383 -0.71526
CHANNELS 3 Zrotation Xrotation Yrotation
						JOINT RightElbow
						{
OFFSET 0 -5.363940 0.000000
CHANNELS 3 Zrotation Xrotation Yrotation
							JOINT RightWrist
							{
OFFSET 0 -3.580350 0.000000
CHANNELS 3 Zrotation Xrotation Yrotation
								JOINT rhand
								{
									OFFSET 0 0 0
CHANNELS 3 Zrotation Xrotation Yrotation
									JOINT RFingers
									{
OFFSET 0 -0.663750 0.000000
CHANNELS 3 Zrotation Xrotation Yrotation
										End Site
										{
OFFSET 0 -0.535130 0.000000
										}
									}
								}
								JOINT RThumb
								{
OFFSET 0 0.000000 0.000000
CHANNELS 3 Zrotation Xrotation Yrotation
									End Site
									{
OFFSET 0 -0.543300 0.543300
									}
								}
							}
						}
					}
				}
			}
		}
	}
}
MOTION
Frames: 8
Frame Time: 0.008333333333333333
1.166200 17.910200 -31.825900 2.229100 0.342200 -3.984900 0.000000 0.000000 0.000000 -27.283100 -0.521300 0.812400 1.592500 7.959900 22.592400 0.520700 -10.041700 -13.702600 0.025100 1.021900 2.809000 0.000000 0.000000 0.000000 17.840800 9.251400 -27.134600 -5.865500 -14.296700 44.439400 -0.024600 -8.949700 -13.194600 -0.008900 -0.609100 1.673700 -3.629500 -0.303200 12.275400 0.552200 -0.869700 0.746700 2.782300 -0.320800 -6.042600 -1.475600 -2.877400 -18.152700 1.960100 -3.936000 16.271500 0.416400 -1.756800 8.099400 -0.000000 -0.000000 0.000000 8.845000 -3.464700 -30.157500 14.196800 -23.015300 2.904600 28.753400 2.010600 -18.263900 0.000000 0.000000 0.000000 -7.125000 0.000000 0.000000 0.663200 50.606700 -0.091600 -0.000000 -0.000000 0.000000 1.043400 -1.194600 5.553200 -13.196100 -21.573800 -2.524900 -17.905700 -2.321600 -21.454600 0.000000 0.000000 0.000000 7.125000 0.000000 -0.000000 6.830100 7.670300 5.900500
1.164990 17.930997 -31.701798 2.204673 0.498822 -3.842799 0.000000 0.000000 0.000000 -27.316829 -0.387366 1.567148 1.480725 7.686436 21.766639 0.520927 -9.787445 -13.632570 0.027520 1.070754 2.943463 0.000000 0.000000 0.000000 17.560606 9.830393 -27.052621 -5.445473 -13.864119 42.704841 -0.073228 -8.863713 -13.893385 -0.149262 -2.296468 6.332794 -3.631088 -0.356214 12.272148 0.619810 -0.937612 0.640975 2.867531 -0.349311 -6.146737 -1.385681 -2.991293 -17.991541 1.716130 -4.069329 16.280046 0.306364 -1.840821 8.068847 0.000000 0.000000 0.000000 8.949137 -3.726820 -30.416217 14.284224 -23.139554 2.938934 28.895728 1.682837 -17.748584 0.000000 0.000000 0.000000 -7.125000 0.000000 0.000000 0.888414 50.059243 -0.109826 0.000000 0.000000 0.000000 1.044308 -0.885289 5.107914 -13.055587 -21.368400 -2.473550 -18.001140 -2.274031 -21.522285 0.000000 0.000000 0.000000 7.125000 0.000000 0.000000 6.773910 7.587716 5.862309
1.161576 17.931140 -31.578105 2.121101 0.597169 -3.690088 0.000000 0.000000 0.000000 -27.265019 -0.231189 2.155480 1.400828 7.486007 21.163979 0.530789 -9.628571 -13.691952 0.033476 1.177575 3.237576 0.000000 0.000000 0.000000 17.488443 10.276336 -27.065254 -4.956204 -13.323601 40.611569 0.009145 -9.588791 -13.499987 -0.126078 -2.201084 6.065229 -3.562922 -0.424245 12.068552 0.695415 -1.006344 0.637754 2.916270 -0.386484 -6.030695 -1.409695 -3.053421 -17.796350 1.642830 -4.131366 16.098344 0.282380 -1.882302 7.974024 0.000000 0.000000 0.000000 9.064703 -4.072891 -30.590777 14.395223 -23.296814 2.982750 29.068500 1.470391 -17.485480 0.000000 0.000000 0.000000 -7.125000 0.000000 0.000000 1.102199 49.796594 -0.130102 0.000000 0.000000 0.000000 1.054389 -0.734758 4.637719 -12.897955 -21.137271 -2.416511 -18.074901 -2.050309 -21.501407 0.000000 0.000000 0.000000 7.125000 0.000000 0.000000 6.725766 7.599027 5.818582
1.157544 17.921621 -31.453909 2.047622 0.694010 -3.533112 0.000000 0.000000 0.000000 -27.207443 -0.025998 2.699746 1.327760 7.295528 20.594686 0.541632 -9.521856 -13.777211 0.032379 1.144189 3.145875 0.000000 0.000000 0.000000 17.462238 10.608150 -27.129386 -4.449085 -12.726672 38.367190 0.137127 -10.586537 -12.716545 -0.058823 -1.563722 4.301489 -3.566569 -0.597388 11.782122 0.868009 -1.214319 0.710884 3.126555 -0.493788 -5.771668 -1.738127 -2.975705 -17.850290 1.730308 -3.949204 15.960959 0.387562 -1.808082 7.942306 0.000000 0.000000 0.000000 8.983151 -4.419751 -30.289245 14.567617 -23.539895 3.051449 29.163343 1.441882 -17.637495 0.000000 0.000000 0.000000 -7.125000 0.000000 0.000000 1.172987 49.981984 -0.142967 0.000000 0.000000 0.000000 0.828946 -0.739538 4.603872 -12.737828 -20.901781 -2.359051 -18.089379 -1.823582 -21.355895 0.000000 0.000000 0.000000 7.125000 0.000000 0.000000 6.707306 7.746456 5.782706
1.154292 17.912998 -31.328403 2.047291 0.841676 -3.375150 0.000000 0.000000 0.000000 -27.216987 0.242667 3.305548 1.240124 7.061246 19.897017 0.545299 -9.431424 -13.792034 0.016275 0.823803 2.264280 0.000000 0.000000 0.000000 17.331231 10.852601 -27.197323 -3.969469 -12.118340 36.153728 0.232111 -11.362466 -12.193738 -0.057728 -1.526524 4.199470 -3.749532 -0.932986 11.517256 1.189353 -1.653451 0.843355 3.630178 -0.711464 -5.435434 -2.472313 -2.707513 -18.418046 1.947841 -3.420727 16.072811 0.635403 -1.575496 8.087179 0.000000 0.000000 0.000000 8.572564 -4.730418 -29.260511 14.829803 -23.908362 3.156665 29.080629 1.625990 -18.325289 0.000000 0.000000 0.000000 -7.125000 0.000000 0.000000 0.983567 50.732834 -0.138554 0.000000 0.000000 0.000000 0.209697 -0.909713 5.314810 -12.588791 -20.681805 -2.306055 -18.015730 -1.732760 -21.068462 0.000000 0.000000 0.000000 7.125000 0.000000 0.000000 6.735802 8.051734 5.766956
1.151040 17.921997 -31.201654 2.158764 1.085570 -3.147137 0.000000 0.000000 0.000000 -27.337383 0.329259 3.850584 1.168354 6.860308 19.302596 0.530174 -9.456305 -13.639043 0.024594 1.008103 2.771051 0.000000 0.000000 0.000000 16.945614 11.239202 -27.031929 -3.494386 -11.446101 33.811060 0.247539 -11.648332 -12.430448 -0.203535 -2.816780 7.774237 -3.608565 -0.823858 11.222995 0.919141 -1.488889 1.246668 3.224822 -0.656031 -4.871717 -1.802266 -2.979691 -19.938508 1.746752 -3.916834 16.323814 0.375779 -1.774695 8.427798 0.000000 0.000000 0.000000 9.281180 -6.056748 -30.091339 15.056378 -24.224328 3.249231 28.707037 1.181763 -19.025586 0.000000 0.000000 0.000000 -7.125000 0.000000 0.000000 0.481259 51.440543 -0.073742 0.000000 0.000000 0.000000 0.795497 -1.683216 4.037637 -12.464688 -20.497731 -2.262419 -17.962262 -1.332926 -21.006902 0.000000 0.000000 0.000000 7.125000 0.000000 0.000000 6.766052 8.122217 5.783745
1.145477 17.930567 -31.076893 2.214707 1.195826 -2.931220 0.000000 0.000000 0.000000 -27.382467 0.495786 4.413307 1.090081 6.633083 18.633562 0.515479 -9.443341 -13.479009 0.038558 1.255084 3.451131 0.000000 0.000000 0.000000 16.629396 11.791156 -26.791814 -3.053062 -10.766819 31.511881 0.273126 -11.909094 -12.410901 -0.284028 -3.420837 9.453398 -3.678699 -0.858958 10.940722 0.919430 -1.532471 1.328251 3.260752 -0.684026 -4.623228 -1.437448 -3.051304 -19.819027 1.343646 -4.024552 15.759066 0.175018 -1.849986 8.202741 0.000000 0.000000 0.000000 9.481531 -6.545071 -30.320849 15.218016 -24.448801 3.315726 28.773708 0.931327 -18.698010 0.000000 0.000000 0.000000 -7.125000 0.000000 0.000000 0.606448 51.090167 -0.087845 0.000000 0.000000 0.000000 0.874159 -1.764607 3.579172 -12.322846 -20.286833 -2.213084 -17.958089 -1.009747 -20.962007 0.000000 0.000000 0.000000 7.125000 0.000000 0.000000 6.765930 8.168887 5.777419
1.138885 17.935083 -30.953383 2.202133 1.246924 -2.765178 0.000000 0.000000 0.000000 -27.329450 0.756890 5.030589 1.006546 6.381412 17.895975 0.500870 -9.478712 -13.332300 0.049910 1.441680 3.965133 0.000000 0.000000 0.000000 16.397062 12.396720 -26.500996 -2.647832 -10.091018 29.281667 0.298234 -12.123709 -12.313957 -0.292289 -3.468563 9.586905 -3.735932 -0.922147 10.752178 0.997096 -1.613162 1.283203 3.381658 -0.723252 -4.555371 -1.237089 -2.979266 -19.355453 1.058565 -3.918229 15.071293 0.072453 -1.825740 7.879151 0.000000 0.000000 0.000000 9.541507 -6.725580 -30.402832 15.348975 -24.629880 3.370056 29.014674 0.864039 -18.260217 0.000000 0.000000 0.000000 -7.125000 0.000000 0.000000 0.927923 50.649134 -0.129410 0.000000 0.000000 0.000000 0.828597 -1.540273 3.381151 -12.206431 -20.113473 -2.172803 -17.907390 -0.733504 -20.929268 0.000000 0.000000 0.000000 7.125000 0.000000 0.000000 6.796233 8.209276 5.798211
